PathFileType	4	(X/Y/Z)	C:\Users\°ÂÌØÂü\Desktop\20201223\Trimmed_bx_y_0_501.trc
DataRate	CameraRate	NumFrames	NumMarkers	Units	OrigDataRate	OrigDataStartFrame	OrigNumFrames
50.00	50.00	      8	43	mm	50.00	980	      1306
Frame#	Time	Top.Head			R.Acromium			L.Acromium			Sternum			R.ASIS			L.ASIS			V.Sacral			R.Thigh.Upper			R.Thigh.Front			R.Thigh.Rear			R.Knee.Lat			R.Knee.Med			R.Shank.Upper			R.Shank.Front			R.Shank.Rear			R.Ankle.Lat			R.Midfoot.Lat			R.Toe.Lat			R.Toe.Tip			R.Toe.Med			R.Ankle.Med			R.Midfoot.Sup			R.Heel			L.Thigh.Upper			L.Thigh.Front			L.Thigh.Rear			L.Knee.Lat			L.Knee.Med			L.Shank.Upper			L.Shank.Front			L.Shank.Rear			L.Ankle.Lat			L.Midfoot.Lat			L.Toe.Lat			L.Toe.Tip			L.Toe.Med			L.Ankle.Med			L.Midfoot.Sup			L.Heel			origin1 front left			origin2 front right			origin 3 back right			origin 4 back leftt			
		X1	Y1	Z1	X2	Y2	Z2	X3	Y3	Z3	X4	Y4	Z4	X5	Y5	Z5	X6	Y6	Z6	X7	Y7	Z7	X8	Y8	Z8	X9	Y9	Z9	X10	Y10	Z10	X11	Y11	Z11	X12	Y12	Z12	X13	Y13	Z13	X14	Y14	Z14	X15	Y15	Z15	X16	Y16	Z16	X17	Y17	Z17	X18	Y18	Z18	X19	Y19	Z19	X20	Y20	Z20	X21	Y21	Z21	X22	Y22	Z22	X23	Y23	Z23	X24	Y24	Z24	X25	Y25	Z25	X26	Y26	Z26	X27	Y27	Z27	X28	Y28	Z28	X29	Y29	Z29	X30	Y30	Z30	X31	Y31	Z31	X32	Y32	Z32	X33	Y33	Z33	X34	Y34	Z34	X35	Y35	Z35	X36	Y36	Z36	X37	Y37	Z37	X38	Y38	Z38	X39	Y39	Z39	X40	Y40	Z40	X41	Y41	Z41	X42	Y42	Z42	X43	Y43	Z43	

980	19.580	-325.68890	226.80479	1722.48743	-417.85925	32.88651	1427.07605	-423.84912	427.42877	1429.90979	-428.28073	235.70540	1277.31995	-614.40594	143.14166	1039.66846	-608.49506	368.26239	1046.60291	-803.83820	239.61409	1078.92419	-658.56964	88.07865	888.62463	-606.37518	143.01791	839.02319	-702.17786	82.60647	745.13593	-714.08557	116.66418	593.16229	-681.52435	222.99022	555.47534	-733.98767	117.99932	534.97968	-650.48615	161.51987	543.57379	-761.80322	121.47648	463.42041	-691.93927	142.57980	211.78963	-616.99725	77.35215	165.52638	-571.27551	51.13291	160.87289	-492.40457	92.95589	161.21622	-532.08014	145.02426	164.51387	-640.31720	215.71797	221.32942	-593.60400	188.77596	170.86276	-718.44904	212.01178	170.06819	-653.17285	428.05945	882.17596	-601.75806	368.93143	834.08545	-689.07068	436.82764	746.73535	-714.50653	414.35107	620.84814	-668.08612	312.26480	570.00287	-713.60950	413.24106	558.44812	-654.63269	372.45319	539.42334	-756.03442	418.91064	500.76138	-684.21075	417.27200	211.56088	-585.68140	468.86844	163.60831	-546.61243	479.77127	160.47713	-488.73975	426.28296	168.37508	-525.66016	387.02509	177.15356	-647.38123	329.51096	209.72305	-595.20715	348.83231	171.18393	-732.32367	345.42206	164.57668	-444.20407	448.61484	147.87265	-450.33337	75.82645	143.77802	-806.26373	82.54931	142.63919	-799.15320	458.09967	145.38731	
981	19.600	-333.06363	226.81421	1727.93530	-420.78601	32.89838	1431.06726	-426.63397	427.56534	1433.72021	-429.31567	236.43341	1280.54541	-612.69952	143.09840	1040.26990	-607.19281	367.87955	1046.92493	-802.37146	239.53889	1078.59082	-656.64838	88.03857	888.82819	-604.68817	142.99953	839.14954	-700.48523	82.86725	745.12213	-712.97620	116.69532	593.35114	-680.42609	222.98311	555.52905	-733.00250	117.99306	535.17236	-649.46716	161.52928	543.54419	-761.05481	121.52909	463.65421	-691.87421	142.54442	211.93637	-617.06714	77.31962	165.51172	-571.28149	51.14449	160.85110	-492.41492	92.94247	161.21603	-532.02429	145.00478	164.58337	-640.17053	215.79782	220.92805	-593.41376	188.61481	171.10188	-718.44354	212.04211	170.04114	-651.55280	428.14182	882.39233	-600.26703	369.04614	834.19861	-687.83136	436.66278	746.87567	-713.52167	414.25375	621.05359	-667.05249	312.31506	570.11115	-712.77576	413.07599	558.50781	-653.76428	372.52979	539.48877	-755.35260	418.71088	501.03369	-684.18060	417.17746	211.63034	-585.68170	468.90610	163.61768	-546.62207	479.73685	160.45549	-488.72449	426.29446	168.35849	-525.68127	387.03207	177.19205	-647.22809	329.46896	209.72404	-595.09930	348.46588	171.67603	-732.32745	345.36856	164.61464	-444.18594	448.58334	147.87483	-450.33664	75.83541	143.76212	-806.26892	82.52610	142.64842	-799.10291	458.11819	145.42865	
982	19.620	-340.51636	226.81805	1733.25598	-423.88712	32.90200	1435.03369	-429.41003	427.69833	1437.47375	-430.36157	237.19922	1283.83911	-610.88983	143.04225	1040.80859	-605.88635	367.48230	1047.24109	-800.85071	239.45706	1078.23523	-654.15247	87.62240	889.51801	-602.88300	143.01494	839.30981	-698.75128	82.95541	745.24927	-711.80511	116.66013	593.58459	-679.28931	222.95685	555.56659	-731.96057	117.97501	535.42773	-648.44196	161.51553	543.56604	-760.24152	121.48051	463.91302	-691.81635	142.50044	212.07707	-617.10559	77.27396	165.53754	-571.28656	51.17241	160.84131	-492.42911	92.95747	161.21745	-531.98730	144.97786	164.63602	-640.02917	215.83075	220.76187	-593.36951	188.60046	171.12447	-718.39771	212.06876	170.05666	-649.95782	428.25595	882.61261	-598.73761	369.15839	834.31677	-686.58209	436.45587	746.96735	-712.55078	414.11945	621.23511	-665.98419	312.30728	570.27759	-711.92456	413.00537	558.56830	-652.88928	372.58658	539.49811	-754.59558	418.54999	501.30112	-684.13501	417.07495	211.73706	-585.68744	468.93420	163.64233	-546.62878	479.71555	160.43950	-488.68649	426.30142	168.33026	-525.68152	387.03677	177.21072	-647.12170	329.42816	209.65636	-594.90143	348.07300	172.19246	-732.34778	345.30902	164.64847	-444.17126	448.56833	147.88304	-450.33789	75.81499	143.75928	-806.26569	82.49321	142.68858	-799.02625	458.13156	145.48735	
983	19.640	-348.03226	226.80002	1738.46472	-427.13327	32.89374	1438.98743	-432.22058	427.82892	1441.18738	-431.41763	238.00972	1287.20459	-608.95886	142.96884	1041.32227	-604.56842	367.08530	1047.55835	-799.25806	239.36832	1077.86218	-650.77124	86.37360	891.12268	-600.95398	143.09105	839.50751	-697.01227	82.81660	745.60516	-710.56067	116.61061	593.80383	-678.14740	222.91490	555.65039	-730.88336	117.98563	535.68262	-647.38147	161.48410	543.61066	-759.35938	121.36994	464.19620	-691.77710	142.49437	212.20535	-617.10681	77.24779	165.58727	-571.28894	51.20925	160.84750	-492.44604	92.98745	161.22858	-531.99359	144.95529	164.64220	-639.88507	215.92596	220.77557	-593.45795	188.72467	170.93849	-718.34930	212.08746	170.10820	-648.41711	428.39999	882.78339	-597.12970	369.28137	834.45819	-685.26465	436.27750	747.06000	-711.58350	413.93130	621.42993	-664.85352	312.23163	570.45276	-711.05157	412.97571	558.65875	-652.02203	372.59317	539.45239	-753.80853	418.38571	501.51904	-684.07007	416.98749	211.85213	-585.69958	468.95447	163.68900	-546.63306	479.71359	160.43102	-488.63745	426.30945	168.29478	-525.65265	387.04654	177.21587	-647.02734	329.35071	209.56889	-594.65808	347.76144	172.60428	-732.36053	345.22675	164.66867	-444.17148	448.57971	147.88968	-450.33691	75.77863	143.76556	-806.24951	82.46336	142.73897	-798.94727	458.12814	145.52065	
984	19.660	-355.58810	226.74414	1743.55615	-430.45264	32.89928	1442.90137	-435.08807	427.95215	1444.83887	-432.48517	238.85791	1290.64136	-606.91016	142.92015	1041.86487	-603.20752	366.73691	1047.89880	-797.52899	239.29942	1077.44580	-646.76453	84.34651	893.48438	-598.92010	143.19218	839.72821	-695.23389	82.62579	746.04761	-709.26947	116.61651	593.95715	-677.04907	222.86073	555.77356	-729.78827	118.02167	535.90991	-646.28381	161.47035	543.64380	-758.44690	121.29180	464.49179	-691.74475	142.55891	212.34312	-617.08026	77.25067	165.64816	-571.29053	51.25150	160.86015	-492.46548	93.01193	161.23952	-532.02692	144.94641	164.60172	-639.67041	216.16006	220.91106	-593.56281	188.85252	170.74667	-718.31927	212.11028	170.17120	-646.86530	428.52228	882.89240	-595.45453	369.43365	834.62769	-683.86340	436.16702	747.19849	-710.57556	413.73492	621.66272	-663.66766	312.12369	570.59155	-710.14661	412.92181	558.82013	-651.14465	372.55423	539.38220	-753.02197	418.18680	501.70239	-683.98328	416.91052	211.93788	-585.71191	468.97537	163.74718	-546.63513	479.72354	160.42661	-488.60187	426.32678	168.25671	-525.59918	387.04474	177.22292	-646.87604	329.20013	209.55469	-594.46906	347.58838	172.84438	-732.36902	345.10547	164.67093	-444.18588	448.60733	147.89197	-450.33432	75.74996	143.77612	-806.21893	82.44249	142.77892	-798.89703	458.10989	145.52039	
985	19.680	-363.18625	226.66528	1748.52014	-433.78253	32.94392	1446.74414	-438.04529	428.07556	1448.41089	-433.57028	239.69978	1294.13538	-604.78436	142.90466	1042.49524	-601.74323	366.51685	1048.29626	-795.59216	239.29335	1076.93860	-643.26965	82.69377	895.37164	-596.83203	143.25946	839.94196	-693.39038	82.54067	746.39404	-707.96643	116.67200	594.07709	-675.99487	222.81850	555.88916	-728.67468	118.04527	536.13800	-645.17847	161.50905	543.64868	-757.55731	121.31259	464.80426	-691.69067	142.69084	212.50212	-617.03839	77.26982	165.71301	-571.28613	51.30194	160.87828	-492.47476	93.01270	161.24174	-532.03998	144.95432	164.53534	-639.38159	216.50352	221.09578	-593.58673	188.86842	170.70932	-718.29321	212.14984	170.20688	-645.18701	428.55283	883.00067	-593.74023	369.62885	834.81665	-682.39685	436.07004	747.38708	-709.47571	413.59128	621.90442	-662.46375	312.02060	570.67212	-709.21472	412.81189	559.03522	-650.24023	372.49457	539.31403	-752.21454	417.94745	501.90091	-683.87799	416.81390	211.97107	-585.71930	468.99265	163.79034	-546.63513	479.73331	160.42223	-488.58328	426.35754	168.22385	-525.54315	387.03024	177.22665	-646.62048	328.96292	209.66420	-594.38330	347.53510	172.92818	-732.39807	344.95349	164.66658	-444.20273	448.63000	147.88838	-450.33084	75.73655	143.78493	-806.18658	82.43237	142.78789	-798.87756	458.09247	145.51564	
986	19.700	-370.84134	226.60080	1753.34497	-437.11053	33.03839	1450.51440	-441.11118	428.22040	1451.91943	-434.68478	240.44077	1297.64905	-602.64539	142.86713	1043.21082	-600.11792	366.48288	1048.77026	-793.47595	239.36867	1076.33997	-641.36438	82.79700	895.42120	-594.75378	143.27219	840.10895	-691.47675	82.61951	746.56970	-706.67279	116.71770	594.21283	-674.93347	222.82138	555.95355	-727.52966	118.05516	536.37579	-644.07404	161.58774	543.63464	-756.70294	121.43983	465.13928	-691.59113	142.84462	212.66908	-616.98480	77.29747	165.77298	-571.26593	51.35811	160.91304	-492.45001	92.98866	161.23331	-532.00909	144.97801	164.46104	-639.09613	216.84531	221.25661	-593.53717	188.78833	170.77058	-718.24487	212.21501	170.19730	-643.33984	428.50098	883.18164	-591.98535	369.85458	835.01208	-680.88257	435.92697	747.60254	-708.26044	413.50241	622.10461	-661.26648	311.94238	570.69977	-708.24207	412.64215	559.22784	-649.28424	372.44131	539.27649	-751.35492	417.67780	502.11963	-683.76318	416.68240	211.96080	-585.72150	468.99548	163.79887	-546.63800	479.73358	160.41156	-488.56104	426.39960	168.20485	-525.50421	387.03214	177.20679	-646.30945	328.68930	209.83730	-594.36749	347.53842	172.91754	-732.44373	344.81656	164.66669	-444.20584	448.63446	147.88074	-450.32742	75.72967	143.78926	-806.17664	82.43939	142.75934	-798.86816	458.08661	145.53456	
987	19.720	-378.54755	226.58264	1758.01147	-440.45679	33.18530	1454.20203	-444.26254	428.40137	1455.39026	-435.84045	240.97229	1301.12817	-600.54041	142.75713	1043.92200	-598.33453	366.60248	1049.29871	-791.36377	239.48079	1075.70886	-640.69946	84.52294	893.83685	-592.72534	143.26257	840.21295	-689.48975	82.86893	746.60083	-705.38269	116.73451	594.36243	-673.82324	222.87750	555.94171	-726.37146	118.09144	536.58575	-642.94720	161.66269	543.61530	-755.86133	121.62242	465.46854	-691.43811	142.96138	212.83060	-616.91730	77.33655	165.81952	-571.23383	51.40848	160.95662	-492.38052	92.95575	161.21179	-531.95270	145.00806	164.39629	-638.88495	217.08710	221.37865	-593.46973	188.69522	170.77687	-718.16486	212.30621	170.16879	-641.39087	428.46991	883.42865	-590.17291	370.06253	835.20898	-679.31763	435.73889	747.80646	-706.96948	413.41302	622.24188	-660.07892	311.91183	570.70837	-707.20441	412.43027	559.35577	-648.26459	372.41248	539.29474	-750.45251	417.41779	502.31781	-683.65369	416.53662	211.94237	-585.72021	468.98495	163.78168	-546.64618	479.72574	160.39778	-488.51044	426.44363	168.19780	-525.47748	387.06116	177.16158	-646.05762	328.47141	209.95464	-594.36121	347.54114	172.85820	-732.47125	344.74478	164.67384	-444.18872	448.62473	147.87555	-450.32486	75.72594	143.79797	-806.20215	82.46156	142.71925	-798.84668	458.09286	145.57579	
